<svg width="130" height="244" viewBox="0 0 130 244" fill="none" xmlns="http://www.w3.org/2000/svg">
<path d="M127 243.911L3.09999 243.911L3.09999 202.139L127 202.139L127 243.911ZM127 182.03L3.09999 182.03L3.09999 140.258L127 140.258L127 182.03ZM129.832 56.0753C129.832 65.9873 128.298 75.1913 125.23 83.6873C122.044 92.0653 117.56 99.3813 111.778 105.635C105.996 111.771 99.152 116.55 91.246 119.972C83.34 123.394 74.608 125.105 65.05 125.105C55.492 125.105 46.76 123.394 38.854 119.972C30.948 116.55 24.104 111.771 18.322 105.635C12.54 99.3813 8.11499 92.0653 5.04699 83.6873C1.86099 75.1913 0.267988 65.9873 0.267988 56.0753C0.267987 43.9213 2.39199 33.1833 6.63999 23.8613C10.888 14.4213 17.024 6.63333 25.048 0.497332L48.589 26.8703C43.987 30.5283 40.447 34.5993 37.969 39.0833C35.373 43.4493 34.075 48.4053 34.075 53.9513C34.075 58.3173 34.783 62.2703 36.199 65.8103C37.615 69.3503 39.68 72.4183 42.394 75.0143C45.108 77.4923 48.412 79.4393 52.306 80.8553C56.082 82.2713 60.33 82.9793 65.05 82.9793C69.77 82.9793 74.077 82.2713 77.971 80.8553C81.747 79.4393 84.992 77.4923 87.706 75.0143C90.42 72.4183 92.485 69.3503 93.901 65.8103C95.317 62.2703 96.025 58.3173 96.025 53.9513C96.025 48.4053 94.786 43.4493 92.308 39.0833C89.712 34.5993 86.113 30.5283 81.511 26.8703L105.052 0.497329C112.958 6.63333 119.094 14.4213 123.46 23.8613C127.708 33.1833 129.832 43.9213 129.832 56.0753Z" fill="#F2EEEE"/>
</svg>
