<svg width="37" height="44" viewBox="0 0 37 44" fill="none" xmlns="http://www.w3.org/2000/svg">
<path d="M29 42.29L8 42.29L8 35.21L29 35.21L29 42.29ZM29 31.8017L8 31.8017L8 24.7217L29 24.7217L29 31.8017ZM29.48 10.4534C29.48 12.1334 29.22 13.6934 28.7 15.1334C28.16 16.5534 27.4 17.7934 26.42 18.8534C25.44 19.8934 24.28 20.7034 22.94 21.2834C21.6 21.8634 20.12 22.1534 18.5 22.1534C16.88 22.1534 15.4 21.8634 14.06 21.2834C12.72 20.7034 11.56 19.8934 10.58 18.8534C9.6 17.7934 8.85 16.5534 8.33 15.1334C7.79 13.6934 7.52 12.1334 7.52 10.4534C7.52 8.39344 7.88 6.57344 8.6 4.99344C9.32 3.39344 10.36 2.07344 11.72 1.03344L15.71 5.50344C14.93 6.12344 14.33 6.81344 13.91 7.57344C13.47 8.31344 13.25 9.15344 13.25 10.0934C13.25 10.8334 13.37 11.5034 13.61 12.1034C13.85 12.7034 14.2 13.2234 14.66 13.6634C15.12 14.0834 15.68 14.4134 16.34 14.6534C16.98 14.8934 17.7 15.0134 18.5 15.0134C19.3 15.0134 20.03 14.8934 20.69 14.6534C21.33 14.4134 21.88 14.0834 22.34 13.6634C22.8 13.2234 23.15 12.7034 23.39 12.1034C23.63 11.5034 23.75 10.8334 23.75 10.0934C23.75 9.15344 23.54 8.31344 23.12 7.57344C22.68 6.81344 22.07 6.12344 21.29 5.50344L25.28 1.03344C26.62 2.07343 27.66 3.39344 28.4 4.99344C29.12 6.57344 29.48 8.39344 29.48 10.4534Z" fill="#F2EEEE"/>
</svg>
