<svg width="327" height="327" viewBox="0 0 327 327" fill="none" xmlns="http://www.w3.org/2000/svg">
<g clip-path="url(#clip0_1_8)">
<path d="M186.333 139.667H139.667C138.783 139.667 137.935 140.018 137.31 140.643C136.685 141.268 136.333 142.116 136.333 143V183C136.333 183.884 136.685 184.732 137.31 185.357C137.935 185.982 138.783 186.333 139.667 186.333H186.333C187.217 186.333 188.065 185.982 188.69 185.357C189.315 184.732 189.667 183.884 189.667 183V143C189.667 142.116 189.315 141.268 188.69 140.643C188.065 140.018 187.217 139.667 186.333 139.667ZM139.667 183V143H186.333V183H139.667Z" fill="#EAE9E8"/>
<path d="M147.867 156.333C148.856 156.333 149.822 156.04 150.645 155.491C151.467 154.941 152.108 154.16 152.486 153.247C152.865 152.333 152.964 151.328 152.771 150.358C152.578 149.388 152.101 148.497 151.402 147.798C150.703 147.099 149.812 146.622 148.842 146.429C147.872 146.236 146.867 146.335 145.953 146.714C145.04 147.092 144.259 147.733 143.709 148.555C143.16 149.378 142.867 150.344 142.867 151.333C142.867 152.659 143.393 153.931 144.331 154.869C145.269 155.807 146.541 156.333 147.867 156.333ZM147.867 148.667C148.395 148.663 148.912 148.817 149.353 149.108C149.793 149.399 150.138 149.814 150.342 150.301C150.547 150.788 150.602 151.325 150.501 151.843C150.4 152.362 150.147 152.838 149.775 153.213C149.403 153.588 148.927 153.843 148.41 153.947C147.892 154.052 147.355 154 146.867 153.799C146.378 153.597 145.961 153.255 145.667 152.817C145.374 152.378 145.217 151.861 145.217 151.333C145.221 150.632 145.502 149.96 145.998 149.464C146.494 148.968 147.165 148.688 147.867 148.683V148.667Z" fill="#EAE9E8"/>
<path d="M170.967 158.617L161.967 167.617L155.3 160.95C154.988 160.64 154.565 160.465 154.125 160.465C153.685 160.465 153.262 160.64 152.95 160.95L142.867 171.167V175.883L154.183 164.567L159.667 169.967L153.417 176.217H158L172.083 162.133L183 173V168.3L173.317 158.617C173.004 158.306 172.582 158.132 172.142 158.132C171.701 158.132 171.279 158.306 170.967 158.617Z" fill="#EAE9E8"/>
</g>
<defs>
<clipPath id="clip0_1_8">
<rect width="60" height="60" fill="white" transform="translate(133 133)"/>
</clipPath>
</defs>
</svg>
